<svg width="32" height="32" viewBox="0 0 32 32" fill="none" xmlns="http://www.w3.org/2000/svg">
<circle cx="16" cy="16" r="16" fill="white"/>
<mask id="mask0_53_102" style="mask-type:alpha" maskUnits="userSpaceOnUse" x="0" y="0" width="32" height="32">
<circle cx="16" cy="16" r="16" fill="white"/>
</mask>
<g mask="url(#mask0_53_102)">
<rect width="32.2043" height="74.5532" transform="translate(-0.136108)" fill="white"/>
<g clip-path="url(#clip0_53_102)">
<path d="M18.0792 20.202C18.1275 20.7418 18.3491 21.9614 19.1741 21.7786L19.2627 21.9123C19.2224 22.7497 18.7962 23.3403 18.1285 23.9522C17.4501 24.5642 16.5849 24.9319 15.6719 24.9965C14.8668 25.0553 14.0107 24.8635 13.4085 24.3258C12.8063 23.7882 12.4896 23.0431 12.8884 22.4045H12.9463C13.1278 22.4098 13.2947 22.3152 13.4482 22.219C13.6436 22.0961 14.0467 21.5921 14.1674 21.4473C14.3284 21.2394 14.3939 20.4511 14.4766 20.202H18.0792V20.202Z" fill="white"/>
<path d="M19.2701 21.4847C20.2196 21.7381 20.956 22.4665 21.5491 23.2126C22.1959 24.0271 22.7031 24.9421 23.0509 25.9206C23.2458 26.4674 23.5538 27.0825 23.681 27.648L23.8507 28.1653C24.7695 32.1058 24.9338 36.1703 24.9939 40.2224L25.0476 40.2834C25.3782 41.488 26.6127 44.5343 26.8811 45.817C26.8897 45.9266 26.8714 46.0367 26.8274 46.1377C26.2907 46.779 25.3782 46.6187 24.6724 46.8367L22.1782 47.3311C18.6083 47.9687 15.0256 48.1248 11.4493 47.524L10.7747 47.4455L8.46668 47.0056C8.25843 46.9661 8.02978 46.9132 7.90794 46.7384C7.80703 46.5952 7.80757 46.4065 7.81508 46.2318C7.84567 45.537 7.92619 44.8475 8.0067 44.1576L8.3749 40.9968H8.34699C7.80166 40.9306 7.36368 40.8648 6.81836 40.7991C7.04433 38.3166 7.33416 35.8405 7.68787 33.3703C7.99542 31.2191 8.35343 29.0675 8.98893 26.989C9.55357 25.142 10.4494 23.2318 12.1503 22.3057L14.512 22.466L19.2701 21.4847Z" fill="black"/>
<path fill-rule="evenodd" clip-rule="evenodd" d="M15.0311 24.6915L14.5169 22.4692C15.5523 22.0468 16.3362 21.6536 17.1173 21.2618L17.1426 21.2491C17.7373 20.9503 18.3513 20.6462 19.0158 20.5955C18.9658 21.1443 18.8148 21.6737 18.6639 22.2029L18.6594 22.2186C18.558 22.5729 18.4506 22.9358 18.2107 23.2142C18.0078 23.4499 17.7266 23.6039 17.4464 23.7401C16.6697 24.1183 15.8518 24.4044 15.036 24.6897L15.0311 24.6915ZM13.7413 21.7915L13.964 20.9995C14.0231 21.0487 14.0993 20.8402 13.9995 20.6772L12.349 22.0026C12.3093 22.4067 12.356 22.8145 12.4869 23.1993C12.6179 23.5841 12.8294 23.9363 13.1074 24.2334C13.6098 23.7177 14.0107 23.1122 14.2882 22.4489C14.0413 22.3971 13.7434 22.2945 13.7069 22.0454C13.701 21.9594 13.7123 21.8728 13.7413 21.7915ZM20.612 42.0471C20.5272 42.4559 20.4993 42.8739 20.5283 43.2902C20.5272 43.3142 20.5305 43.3383 20.5391 43.3607C20.5476 43.3832 20.5605 43.404 20.5772 43.4217C20.611 43.442 20.6507 43.4511 20.6899 43.4468L24.3397 43.4366C24.395 43.4409 24.4503 43.4308 24.5007 43.4078C24.6038 43.3495 24.6118 43.2074 24.6081 43.0871L24.5694 42.1021L20.612 42.0471ZM6.74438 42.077C6.77659 41.6788 6.81148 41.27 6.98377 40.9092L8.32239 41.0338L8.15278 42.2908C7.67562 42.2876 7.20115 42.2154 6.74438 42.077Z" fill="white"/>
<path fill-rule="evenodd" clip-rule="evenodd" d="M14.878 24.9715C14.9253 24.9972 14.9795 25.0105 15.0332 25.0105C15.0702 25.0105 15.1072 25.0046 15.141 24.9929C15.9531 24.7091 16.7926 24.4151 17.5864 24.0287C17.8961 23.8786 18.2149 23.7011 18.4538 23.4237C18.7452 23.086 18.8687 22.6541 18.968 22.3068L18.9728 22.2907L18.9729 22.2903C19.0221 22.118 19.0717 21.9438 19.1183 21.7675C19.1395 21.7787 19.1622 21.7878 19.1864 21.7942C20.1241 22.0449 20.8396 22.8369 21.2963 23.4115C21.9222 24.1998 22.4101 25.08 22.7471 26.0281C22.8174 26.2248 22.9017 26.4311 22.9838 26.6304C23.1341 26.9965 23.2892 27.3749 23.3665 27.718C23.4003 27.8671 23.5329 27.9687 23.6805 27.9687C23.7041 27.9687 23.7278 27.966 23.7514 27.9607C23.9247 27.9217 24.0337 27.7501 23.995 27.5775C23.906 27.182 23.7406 26.7779 23.5802 26.3873L23.5728 26.3693C23.4928 26.1745 23.4172 25.9901 23.3542 25.8133C22.994 24.7989 22.4713 23.8572 21.8014 23.0133C21.2883 22.3677 20.4757 21.4741 19.3533 21.1748C19.3215 21.1663 19.2894 21.1628 19.2581 21.164C19.2921 20.9866 19.3191 20.807 19.3356 20.6249C19.3442 20.5313 19.311 20.4383 19.2444 20.371C19.1778 20.3036 19.085 20.2689 18.9905 20.2764C18.2524 20.3325 17.5861 20.6672 16.9981 20.9627L16.9971 20.9632L16.9713 20.976L16.9481 20.9876C16.1995 21.3627 15.4243 21.7511 14.4266 22.1595C14.4039 22.1487 14.3798 22.1405 14.3547 22.1352C14.0997 22.0818 14.0375 22.0166 14.0273 22.0021C14.0273 21.9711 14.0316 21.9407 14.0407 21.9113L14.3724 21.2085C14.4314 21.0834 14.403 20.9343 14.3021 20.8392C14.2012 20.744 14.0504 20.7243 13.928 20.79L12.1959 21.7199C12.102 21.7707 12.0387 21.8648 12.0285 21.9711L12.0246 22.0132C12.0156 22.0171 12.0067 22.0214 11.9979 22.0262C10.5052 22.8391 9.45159 24.3863 8.68137 26.896C8.03353 29.0151 7.66801 31.2384 7.36958 33.3254C7.01641 35.7876 6.72335 38.2926 6.49792 40.7708C6.48872 40.8694 6.52559 40.9619 6.59111 41.027C6.50347 41.295 6.4665 41.5706 6.44208 41.8317C5.89536 42.0722 5.61598 42.556 5.74275 43.0609C5.75724 43.1176 5.78623 43.1689 5.82756 43.21C6.34927 43.73 6.29183 44.5066 6.23601 45.2575L6.2349 45.2721C6.2283 45.359 6.22177 45.445 6.21669 45.529C6.21347 45.5814 6.22313 45.6337 6.24514 45.6818C6.37879 45.9747 6.59187 46.2238 6.86078 46.4023C7.06292 46.5369 7.28993 46.6267 7.52745 46.6676C7.55071 46.7559 7.58787 46.843 7.64602 46.9255C7.84783 47.2109 8.19618 47.2809 8.40765 47.3231L10.2299 47.6705C10.2503 47.6743 10.2707 47.6764 10.2905 47.6764C10.4419 47.6764 10.5766 47.5695 10.6061 47.4167C10.6399 47.243 10.5251 47.0746 10.3506 47.0415L8.5311 46.6946C8.41731 46.6722 8.22623 46.6337 8.17256 46.5578C8.12694 46.4937 8.13391 46.3344 8.13767 46.2494C8.16822 45.5674 8.24908 44.8731 8.32734 44.2011L8.32768 44.1982L8.96264 38.7469L8.9782 38.6133L8.97966 38.6008C9.41933 34.8529 9.87392 30.9778 10.7543 27.2568C10.7951 27.0842 10.6877 26.9116 10.5149 26.8709C10.3415 26.8298 10.1682 26.9372 10.1274 27.1093C9.23867 30.865 8.78194 34.7577 8.34024 38.5223L8.33841 38.5379L8.09332 40.6423C7.9714 40.6265 7.85329 40.6108 7.7374 40.5953L7.73542 40.595L7.73428 40.5949L7.73364 40.5948L7.63902 40.5821C7.48605 40.5613 7.3304 40.5405 7.16723 40.5196C7.38783 38.1536 7.66962 35.7652 8.00669 33.4158C8.30136 31.3544 8.66205 29.1605 9.29701 27.0831C9.96715 24.8991 10.8456 23.5092 12.0464 22.7426C12.0743 22.9314 12.1195 23.1182 12.182 23.3019C12.3285 23.7327 12.5604 24.1196 12.8717 24.452C12.9318 24.5162 13.0161 24.553 13.1041 24.5541H13.1073C13.1943 24.5541 13.278 24.5188 13.3386 24.4568C13.5539 24.2357 13.7508 24.0005 13.9283 23.7523L13.3161 33.3564L13.3156 33.3637C13.0215 37.9782 12.7177 42.745 13.2306 47.4396C12.6488 47.3806 12.0729 47.3031 11.5019 47.2072C11.3264 47.1772 11.1606 47.2953 11.1311 47.4701C11.1015 47.6443 11.2196 47.81 11.3951 47.8394C12.0851 47.9554 12.7817 48.045 13.4868 48.1083C13.5212 48.1208 13.5581 48.1275 13.5963 48.1275C13.6092 48.1275 13.622 48.1269 13.6349 48.1253C13.6409 48.1246 13.6469 48.1238 13.6527 48.1227C14.4473 48.1893 15.2527 48.2226 16.0717 48.2226C18.0155 48.2226 20.0354 48.0344 22.162 47.6586C22.4506 47.8798 22.7901 47.9965 23.1642 47.9965C23.2044 47.9965 23.2457 47.9955 23.2871 47.9923C23.8562 47.9551 24.3509 47.6471 24.6824 47.1562C24.7105 47.1552 24.739 47.1505 24.7674 47.1425C24.9676 47.0805 25.1973 47.0516 25.4399 47.0217C25.9976 46.9528 26.6293 46.8742 27.0743 46.3424C27.0942 46.3189 27.1103 46.2927 27.1226 46.2644C27.1865 46.1164 27.2139 45.9528 27.2015 45.7919C27.2004 45.7781 27.1983 45.7647 27.1956 45.7513C27.0357 44.9872 26.5651 43.6769 26.11 42.4099L26.1098 42.4094C25.7926 41.5276 25.4936 40.6944 25.3573 40.1984C25.3485 40.1663 25.3351 40.1367 25.318 40.11C25.2736 36.1684 25.1654 32.3997 24.2495 28.4684C24.2092 28.2958 24.0364 28.1883 23.863 28.2284C23.6897 28.2685 23.5818 28.4406 23.622 28.6132C24.6032 32.8252 24.6429 36.8784 24.6848 41.17L24.6877 41.4635L24.6907 41.7521L20.627 41.6858C20.0232 36.988 19.8149 32.2095 20.0076 27.4781C20.0152 27.3012 19.8767 27.1515 19.699 27.1446C19.5208 27.1382 19.3711 27.275 19.3641 27.4519C19.166 32.3116 19.3882 37.221 20.0243 42.0433C20.0407 42.1674 20.127 42.2673 20.2407 42.3055C20.1953 42.6338 20.1835 42.9663 20.2057 43.2977C20.2057 43.3575 20.2159 43.4163 20.2368 43.4724C20.261 43.5366 20.2969 43.5943 20.3442 43.6434C20.3486 43.6482 20.3533 43.6527 20.3581 43.6571C20.1635 43.8036 20.0023 43.991 19.9314 44.2164C19.8702 44.4115 19.8514 44.715 20.1091 45.0517C20.3474 45.3639 20.6764 45.5515 20.9668 45.7166C21.0242 45.7492 21.0811 45.7818 21.138 45.8155C21.2174 45.8622 21.3042 46.1772 21.3422 46.315L21.343 46.3179C21.3693 46.414 21.3945 46.5049 21.4241 46.5861C21.4922 46.7724 21.573 46.9418 21.6653 47.0934C18.9113 47.5532 16.343 47.6877 13.8853 47.498C13.3585 42.8148 13.6637 38.0285 13.9591 33.3971L14.5543 24.0603L14.717 24.7636C14.7379 24.8523 14.7975 24.9277 14.878 24.9715ZM6.73001 42.4072C6.62272 42.4519 6.34763 42.5902 6.35732 42.8343C7.00814 43.5545 6.93651 44.5214 6.87855 45.3037L6.87849 45.3045L6.87365 45.3702C6.87081 45.4082 6.86799 45.4459 6.86561 45.4836C6.94987 45.6385 7.07118 45.7705 7.21878 45.8689C7.30783 45.928 7.40448 45.9735 7.50575 46.0042C7.54225 45.3766 7.61502 44.7504 7.68565 44.1427L7.68789 44.1234L7.86509 42.6019C7.48087 42.5786 7.10055 42.5132 6.73001 42.4072ZM7.93941 41.9638L8.01907 41.2799C7.85797 41.2591 7.70384 41.2384 7.55314 41.2181L7.47717 41.208C7.39327 41.1968 7.30821 41.1855 7.22148 41.1741C7.1462 41.3802 7.11142 41.6081 7.08836 41.8386C7.36748 41.9066 7.65245 41.9486 7.93941 41.9638ZM20.8417 43.1266C20.8321 42.8607 20.8474 42.5943 20.8877 42.3313L24.258 42.3864L24.286 43.0978C24.2865 43.1047 24.2865 43.1111 24.2865 43.117V43.117L20.8417 43.1266ZM24.9295 43.0743L24.9029 42.397L25.0111 42.3987H25.0165C25.1013 42.3987 25.1834 42.3651 25.243 42.3057C25.2875 42.2618 25.3178 42.2061 25.3308 42.1459C25.3823 42.2898 25.4349 42.4364 25.4881 42.5845L25.4886 42.586L25.4886 42.5861L25.4887 42.5862L25.5027 42.6254L25.5047 42.6309C25.9266 43.8058 26.4036 45.1341 26.5596 45.8588C26.5606 45.8962 26.5558 45.9341 26.5451 45.9699C26.2628 46.273 25.8425 46.3253 25.3594 46.3852C25.2445 46.3994 25.1279 46.4139 25.0114 46.4324C25.028 46.3729 25.0427 46.312 25.0556 46.25C25.2181 45.4669 25.0828 44.6912 24.952 43.9412L24.9515 43.9385C24.937 43.8562 24.9231 43.7744 24.9091 43.6926C24.8984 43.6291 24.8696 43.573 24.8288 43.5288C24.9385 43.3624 24.9323 43.1575 24.9295 43.0743ZM21.3535 43.7651L24.2698 43.7569C24.2703 43.7708 24.2718 43.7849 24.2741 43.799C24.286 43.8697 24.2983 43.9404 24.3107 44.0114L24.3171 44.0481L24.3175 44.0504C24.4381 44.7418 24.5627 45.456 24.425 46.1196C24.2452 46.9827 23.6977 47.3221 23.2441 47.352C22.5539 47.3964 22.2029 46.8411 22.029 46.3659C22.0086 46.3093 21.9866 46.2307 21.964 46.1479L21.9636 46.1464C21.8773 45.8329 21.7698 45.4427 21.467 45.2639C21.4218 45.2372 21.376 45.2111 21.3301 45.1848L21.2861 45.1597L21.2857 45.1595C21.0261 45.0115 20.7804 44.8715 20.6211 44.6632C20.5111 44.5194 20.5363 44.4387 20.546 44.4083C20.5964 44.2474 20.8497 44.0609 21.1482 43.9647C21.2483 43.9328 21.3215 43.8568 21.3535 43.7651ZM15.264 24.2698L14.892 22.6611C15.8168 22.2731 16.5505 21.9054 17.2601 21.5489L17.2864 21.5355C17.7233 21.3159 18.172 21.0909 18.6373 20.9797C18.5707 21.3524 18.4654 21.7218 18.3557 22.107L18.3557 22.107L18.3534 22.1149L18.3491 22.1309C18.2589 22.4473 18.165 22.7744 17.9659 23.0058C17.7952 23.2036 17.5349 23.3398 17.3046 23.4521C16.6525 23.7695 15.9542 24.0266 15.264 24.2698ZM12.6586 22.2009C12.6484 22.5056 12.6935 22.8059 12.7922 23.0967C12.8711 23.3286 12.9812 23.5445 13.1207 23.7423C13.4073 23.4061 13.6499 23.0384 13.8459 22.6435C13.5775 22.5195 13.424 22.3345 13.388 22.0919L13.3877 22.0894C13.3867 22.0823 13.3858 22.0756 13.3853 22.0684C13.3789 21.9775 13.3853 21.8877 13.4041 21.7996L12.6586 22.2009Z" fill="black"/>
</g>
<path d="M18.7173 15.4316C19.0893 14.9955 18.9739 14.2403 18.4887 13.9352C18.3147 13.8251 18.0947 13.7567 17.9997 13.575C17.8923 13.3745 17.9895 13.1346 18.0458 12.9155C18.0458 12.9085 18.0496 12.901 18.0517 12.8941C18.2128 12.2335 17.4544 11.7434 16.9021 12.1432C16.2123 12.6424 15.4287 12.9983 14.5978 13.1902C14.1685 13.2885 13.6408 13.3077 13.3757 12.9582C13.219 12.7508 13.1814 12.4377 12.7853 12.4671C12.6699 12.4767 12.5588 12.5168 12.4632 12.5825C11.7542 13.0587 10.9432 13.3617 10.0946 13.4681C9.85738 13.4975 9.61155 13.5108 9.38236 13.443C8.72432 13.2479 8.42536 12.4136 8.62395 11.7594C8.82255 11.1053 9.38344 10.6216 9.97599 10.2753C10.3431 10.0615 10.7521 9.86484 10.9733 9.50195C11.1031 9.28817 11.1541 9.03377 11.2846 8.82053C11.415 8.60728 11.6189 8.44642 11.8267 8.30105C12.9458 7.52984 14.2839 7.13756 15.6439 7.18085C16.449 7.20864 17.3953 7.53091 17.5692 8.31227L18.8037 8.83015C19.7537 8.97552 20.7199 9.29405 21.3924 9.97814C22.0649 10.6622 22.3585 11.7798 21.8755 12.6076C21.8121 12.7145 21.7338 12.8278 21.737 12.9539C21.7413 13.1143 21.876 13.2404 21.9876 13.359C22.183 13.5696 22.3317 13.8187 22.4235 14.0902C22.5153 14.3617 22.5485 14.6492 22.5212 14.9346C22.4959 15.1826 22.4138 15.4391 22.227 15.6032C22.0402 15.7673 21.722 15.8009 21.5454 15.6246L18.8671 16.0334L18.7173 15.4316Z" fill="black"/>
<path d="M9.99803 13.4958C9.65184 14.3824 9.44358 15.183 9.39098 15.6678C9.25841 16.8885 9.50585 18.2449 10.4435 19.1144C10.9432 19.5773 11.5621 19.8049 12.2239 19.9209C12.9141 20.0422 13.6548 20.1529 14.3247 19.8803C14.2893 20.4366 14.2839 20.8337 14.3096 21.3906L18.0936 20.9727C18.0325 20.241 18.1688 19.6136 18.4887 18.9519C18.5611 18.8023 18.7168 18.8039 18.8708 18.7553C19.0077 18.7125 19.1419 18.6634 19.2745 18.6078C19.5434 18.4966 19.7973 18.3528 20.0313 18.1802C20.4939 17.8323 20.8546 17.3438 20.9899 16.7773C21.1128 16.2637 21.0264 15.6523 20.4531 15.3631C20.049 15.1601 19.6867 15.2322 19.071 15.7709L18.7222 15.4332C19.0941 14.997 18.9787 14.2419 18.4935 13.9367C18.3196 13.8266 18.0996 13.7582 18.0045 13.5765C17.8972 13.3761 17.9944 13.1361 18.0507 12.917C18.0507 12.91 18.0545 12.9025 18.0566 12.8956C18.2176 12.235 17.4592 11.7449 16.9069 12.1447C16.2172 12.6439 15.4336 12.9998 14.6027 13.1917C14.1733 13.29 13.6457 13.3093 13.3806 12.9597C13.2238 12.7524 13.1863 12.4392 12.7901 12.4686C12.6747 12.4782 12.5636 12.5183 12.4681 12.584C11.7575 13.0602 10.9443 13.3627 10.0946 13.468" fill="white"/>
<path d="M21.8551 16.0644C21.6538 16.0644 21.4584 15.9934 21.3157 15.8512C21.1901 15.7256 21.1906 15.5225 21.3162 15.3974C21.4423 15.2724 21.6463 15.2729 21.7719 15.398C21.8122 15.4381 21.9383 15.4279 22.0124 15.3627C22.1117 15.2756 22.1777 15.112 22.1991 14.902C22.2222 14.6615 22.1949 14.4226 22.1165 14.1923C22.0387 13.9619 21.9152 13.7551 21.7494 13.5766L21.722 13.5477C21.5948 13.4141 21.4203 13.2313 21.4134 12.9625C21.408 12.7567 21.5051 12.5959 21.576 12.4783L21.5964 12.4446C22.0236 11.7119 21.6914 10.7419 21.1606 10.2026C20.6329 9.66604 19.823 9.31117 18.7533 9.14709C18.5772 9.12037 18.457 8.95629 18.4838 8.78153C18.5107 8.60677 18.6755 8.48652 18.851 8.51324C20.0619 8.69869 20.9936 9.11609 21.6211 9.75369C22.0016 10.1406 22.2716 10.6451 22.3811 11.1742C22.4997 11.7466 22.4187 12.3126 22.1524 12.769L22.1283 12.8091C22.1036 12.8497 22.0628 12.9171 22.058 12.9449C22.0693 12.9807 22.1444 13.0592 22.1895 13.1068L22.2212 13.1399C22.4503 13.3869 22.6199 13.6712 22.7273 13.9876C22.8346 14.304 22.8722 14.6327 22.8405 14.9651C22.8019 15.3435 22.6634 15.6465 22.4391 15.8437C22.2711 15.9907 22.0601 16.0644 21.8551 16.0644Z" fill="black"/>
<path d="M18.7174 15.7523C18.6438 15.7523 18.5698 15.7272 18.5091 15.6759C18.3733 15.561 18.3572 15.359 18.4721 15.2238C18.5875 15.0886 18.6374 14.886 18.6063 14.6819C18.5751 14.4782 18.4667 14.3003 18.317 14.2062C18.2799 14.1827 18.2364 14.1597 18.1903 14.1351C18.0298 14.0501 17.8296 13.9438 17.7142 13.7231C17.5639 13.4425 17.6471 13.1469 17.7083 12.9305C17.7158 12.9037 17.7233 12.877 17.7303 12.8508C17.7335 12.8337 17.7378 12.8182 17.7421 12.8054C17.7947 12.5617 17.6267 12.4276 17.573 12.3917C17.4555 12.3132 17.2676 12.2752 17.0921 12.4019C16.3632 12.9294 15.549 13.2992 14.6714 13.5018C13.9549 13.6659 13.4181 13.5445 13.1197 13.1507C13.0666 13.0807 13.0274 13.009 12.9931 12.946C12.9018 12.7792 12.8986 12.7792 12.81 12.7862C12.7537 12.791 12.6968 12.8113 12.6479 12.845C11.897 13.3489 11.0297 13.6734 10.136 13.7851C9.88373 13.8166 9.58638 13.8364 9.29171 13.7492C8.94337 13.6461 8.64763 13.397 8.45869 13.0486C8.23326 12.6317 8.18013 12.1149 8.31646 11.6654C8.51076 11.0257 9.01422 10.4645 9.81396 9.99743C9.86334 9.96857 9.91272 9.94078 9.96263 9.91245C10.2648 9.74089 10.5498 9.57896 10.699 9.33418C10.749 9.25241 10.7876 9.15193 10.8289 9.04558C10.8788 8.91678 10.9304 8.7837 11.0109 8.65223C11.173 8.38661 11.4108 8.19955 11.6426 8.03708C12.8122 7.23113 14.2361 6.81373 15.6553 6.85862C16.5489 6.88962 17.6686 7.27015 17.8849 8.24124C17.9235 8.4144 17.814 8.58542 17.6401 8.6239C17.4668 8.66185 17.2945 8.55335 17.2558 8.38019C17.1281 7.8062 16.3493 7.52455 15.6338 7.49996C14.3526 7.45827 13.0655 7.83666 12.0108 8.56351C11.8375 8.68483 11.6614 8.82111 11.5605 8.98626C11.51 9.06856 11.4709 9.16957 11.4295 9.27646C11.3802 9.40419 11.3292 9.5362 11.2497 9.66661C11.0141 10.0535 10.625 10.2748 10.2815 10.4693C10.2337 10.4966 10.1865 10.5233 10.1392 10.5506C9.4844 10.9332 9.07863 11.371 8.93263 11.8509C8.84622 12.1363 8.88164 12.4783 9.02549 12.7439C9.10117 12.8834 9.24018 13.0646 9.47474 13.1341C9.65562 13.1875 9.86978 13.1715 10.0555 13.1485C10.8493 13.0491 11.6201 12.7611 12.284 12.3153C12.422 12.2202 12.5873 12.1609 12.759 12.1464C13.2684 12.108 13.4573 12.4537 13.5588 12.6392C13.5851 12.6873 13.6098 12.7327 13.6339 12.7643C13.8186 13.008 14.3199 12.9241 14.5265 12.8765C15.3193 12.6937 16.0551 12.3591 16.7137 11.8824C17.0792 11.6179 17.5575 11.6083 17.9321 11.8578C18.3003 12.1031 18.4705 12.5393 18.3658 12.9679C18.3642 12.9743 18.3626 12.9802 18.3604 12.9866C18.3604 12.9871 18.3604 12.9877 18.3599 12.9877C18.3594 12.9893 18.3588 12.9914 18.3588 12.993C18.3497 13.0288 18.3395 13.0652 18.3293 13.102C18.296 13.2196 18.2552 13.366 18.2853 13.4222C18.31 13.4697 18.4039 13.5194 18.4946 13.5675C18.5494 13.5964 18.6057 13.6263 18.6631 13.6627C18.9723 13.8572 19.1843 14.1928 19.2444 14.583C19.3046 14.9742 19.2026 15.3585 18.9648 15.6369C18.8993 15.7139 18.8086 15.7523 18.7174 15.7523ZM18.3679 12.916C18.3679 12.9166 18.3679 12.9166 18.3679 12.916C18.3679 12.9166 18.3679 12.9166 18.3679 12.916ZM18.3679 12.9155V12.916V12.9155Z" fill="black"/>
<path d="M11.5879 14.97C11.7954 14.97 11.9636 14.7666 11.9636 14.5157C11.9636 14.2648 11.7954 14.0614 11.5879 14.0614C11.3804 14.0614 11.2122 14.2648 11.2122 14.5157C11.2122 14.7666 11.3804 14.97 11.5879 14.97Z" fill="black"/>
<path d="M13.4128 15.0956C13.6203 15.0956 13.7885 14.8922 13.7885 14.6413C13.7885 14.3904 13.6203 14.187 13.4128 14.187C13.2053 14.187 13.0371 14.3904 13.0371 14.6413C13.0371 14.8922 13.2053 15.0956 13.4128 15.0956Z" fill="black"/>
<path d="M18.0909 20.9712C17.9256 20.9712 17.7845 20.845 17.7705 20.6772C17.7023 19.8723 17.8596 19.5041 18.1935 18.8115C18.3158 18.5587 18.5472 18.5031 18.6857 18.4699C18.7157 18.4625 18.7442 18.456 18.7688 18.448C18.8966 18.4079 19.0227 18.362 19.1446 18.3107C19.3909 18.2091 19.6223 18.0782 19.8348 17.9211C20.2631 17.5988 20.5616 17.1654 20.6721 16.7015C20.729 16.4679 20.8063 15.9003 20.3034 15.6475C20.0839 15.5369 19.8686 15.4936 19.2787 16.0099C19.1451 16.1269 18.9417 16.1136 18.8241 15.9805C18.7066 15.8474 18.72 15.6449 18.8537 15.5278C19.7006 14.7865 20.1901 14.8721 20.5932 15.0746C21.218 15.3889 21.488 16.0692 21.298 16.8506C21.153 17.4577 20.7703 18.0205 20.2207 18.4336C19.9642 18.6233 19.6861 18.7805 19.3931 18.9012C19.2541 18.9595 19.1086 19.0129 18.9621 19.0584C18.9175 19.0723 18.8746 19.083 18.837 19.092C18.8134 19.0979 18.7828 19.1049 18.7629 19.1113C18.4543 19.7526 18.3588 19.9937 18.4125 20.6222C18.4275 20.7985 18.296 20.9535 18.1189 20.9685C18.1092 20.9706 18.1001 20.9712 18.0909 20.9712Z" fill="black"/>
<path d="M14.3097 21.4442C14.1385 21.4442 13.9962 21.31 13.9882 21.1379C13.971 20.7617 13.9673 20.5725 13.978 20.3143C13.3328 20.4383 12.6759 20.3245 12.1692 20.2363C11.3507 20.0926 10.7146 19.8023 10.2246 19.3486C9.32394 18.5133 8.90368 17.159 9.07114 15.6321C9.13394 15.0661 9.36795 14.2238 9.69805 13.3788C9.76246 13.2137 9.94924 13.1319 10.1151 13.1961C10.2809 13.2602 10.3631 13.4462 10.2987 13.6113C9.9326 14.5487 9.75548 15.306 9.71147 15.7021C9.56601 17.0248 9.91274 18.183 10.6636 18.8788C11.0651 19.2508 11.5788 19.4811 12.2803 19.6041C12.9974 19.7286 13.6377 19.8125 14.2034 19.5822C14.3059 19.5405 14.4229 19.5544 14.5131 19.6185C14.6033 19.6832 14.6537 19.789 14.6468 19.8991C14.6124 20.4367 14.6065 20.5554 14.6323 21.1069C14.6403 21.2838 14.5029 21.434 14.3253 21.442C14.3194 21.4442 14.3145 21.4442 14.3097 21.4442Z" fill="black"/>
<circle cx="11.0639" cy="14.6042" r="1" fill="white" stroke="black" stroke-width="0.519149"/>
<circle cx="13.8554" cy="14.6042" r="1" fill="white" stroke="black" stroke-width="0.519149"/>
<path d="M15.0403 14.5441L19.0641 14.5584" stroke="black" stroke-width="0.5"/>
<path d="M12 14H13" stroke="black" stroke-width="0.5"/>
<path d="M10.6895 17.7701C11.3022 18.0765 12.3099 18.1446 13.0724 17.8723" stroke="black" stroke-width="0.5" stroke-linecap="round"/>
</g>
<defs>
<clipPath id="clip0_53_102">
<rect width="32.2043" height="32.0668" fill="white" transform="translate(-0.136108 20.202)"/>
</clipPath>
</defs>
</svg>
